<svg width="500" height="500" viewBox="0 0 500 500" fill="none" xmlns="http://www.w3.org/2000/svg">
  <defs>
    <radialGradient id="glow" cx="50%" cy="50%" r="50%" fx="50%" fy="50%">
      <stop offset="0%" stop-color="#00F2FF" stop-opacity="0.8"/>
      <stop offset="100%" stop-color="#00F2FF" stop-opacity="0"/>
    </radialGradient>
  </defs>
  
  <!-- Solid background removed for transparency -->
  
  <polygon points="250,50 450,350 50,350" fill="#0A192F"/>
  
  <polygon points="250,320 350,450 150,450" fill="url(#glow)"/>
  
  <g transform="translate(250, 250)">
    <circle cx="0" cy="0" r="50" fill="#00F2FF"/>
    <circle cx="0" cy="0" r="20" fill="#0A192F"/>
    
    <path d="M-70,-70 L-35,-35" stroke="#00F2FF" stroke-width="5" stroke-linecap="round"/>
    <circle cx="-70" cy="-70" r="8" fill="#00F2FF"/>
    
    <path d="M70,-70 L35,-35" stroke="#00F2FF" stroke-width="5" stroke-linecap="round"/>
    <circle cx="70" cy="-70" r="8" fill="#00F2FF"/>
    
    <path d="M-70,70 L-35,35" stroke="#00F2FF" stroke-width="5" stroke-linecap="round"/>
    <circle cx="-70" cy="70" r="8" fill="#00F2FF"/>
    
    <path d="M70,70 L35,35" stroke="#00F2FF" stroke-width="5" stroke-linecap="round"/>
    <circle cx="70" cy="70" r="8" fill="#00F2FF"/>
    
    <path d="M0,-100 L0,-50" stroke="#00F2FF" stroke-width="5" stroke-linecap="round"/>
    <circle cx="0" cy="-100" r="8" fill="#00F2FF"/>
    
    <path d="M0,100 L0,50" stroke="#00F2FF" stroke-width="5" stroke-linecap="round"/>
    <circle cx="0" cy="100" r="8" fill="#00F2FF"/>
  </g>
</svg>
